# xmcd CD database file
#
# Track frame offsets:
#	150
#	12532
#	33040
#	43423
#
# Disc length: 755 seconds
#
# Revision: 0
# Processed by: cddbd v1.5.1PL2 Copyright (c) Steve Scherf et al.
# Submitted via: CDex 1.51
#
DISCID=2c02f104
DTITLE=The White Stripes - I Just Don't Know What To Do With Myself (ep promo)
DYEAR=2004
DGENRE=Blues
TTITLE0=01-I Just Don't Know What To Do With Myself
TTITLE1=02-Who's To Say
TTITLE2=03-Lafayette Blues (radio 1 session)
TTITLE3=04-Im finding it harder to be a gentleman (live on Peely)
EXTD=YEAR: 2004
EXTT0=
EXTT1=
EXTT2=
EXTT3=
PLAYORDER=
